<svg width="160" height="160" viewBox="0 0 160 160" fill="none" xmlns="http://www.w3.org/2000/svg">
<path d="M128.42 33.0813L89.5692 15.7772C83.8674 13.2579 75.2486 13.2579 69.5469 15.7772L30.6956 33.0813C20.8834 37.457 19.4248 43.4239 19.4248 46.6063C19.4248 49.7886 20.8834 55.7555 30.6956 60.1313L69.5469 77.4353C72.3977 78.695 75.9779 79.358 79.558 79.358C83.1382 79.358 86.7183 78.695 89.5692 77.4353L128.42 60.1313C138.233 55.7555 139.691 49.7886 139.691 46.6063C139.691 43.4239 138.299 37.457 128.42 33.0813Z" fill="white"/>
<path d="M79.5603 113.633C77.0409 113.633 74.5215 113.103 72.2011 112.109L27.5155 92.2189C20.6867 89.1692 15.3828 81.0144 15.3828 73.5226C15.3828 70.8043 17.5707 68.6165 20.2889 68.6165C23.0072 68.6165 25.1951 70.8043 25.1951 73.5226C25.1951 77.1027 28.1785 81.7437 31.4935 83.2022L76.179 103.092C78.3006 104.02 80.7536 104.02 82.8752 103.092L127.561 83.2022C130.876 81.7437 133.859 77.169 133.859 73.5226C133.859 70.8043 136.047 68.6165 138.765 68.6165C141.484 68.6165 143.671 70.8043 143.671 73.5226C143.671 80.9481 138.367 89.1692 131.539 92.2189L86.8531 112.109C84.599 113.103 82.0796 113.633 79.5603 113.633Z" fill="white"/>
<path d="M79.5603 146.518C77.0409 146.518 74.5215 145.987 72.2011 144.993L27.5155 125.103C20.1563 121.855 15.3828 114.495 15.3828 106.407C15.3828 103.689 17.5707 101.501 20.2889 101.501C23.0072 101.501 25.1951 103.689 25.1951 106.407C25.1951 110.584 27.6481 114.363 31.4935 116.087L76.179 135.976C78.3006 136.904 80.7536 136.904 82.8752 135.976L127.561 116.087C131.34 114.429 133.859 110.584 133.859 106.407C133.859 103.689 136.047 101.501 138.765 101.501C141.484 101.501 143.671 103.689 143.671 106.407C143.671 114.495 138.898 121.788 131.539 125.103L86.8531 144.993C84.599 145.987 82.0796 146.518 79.5603 146.518Z" fill="white"/>
</svg>
