<svg width="160" height="160" viewBox="0 0 160 160" fill="none" xmlns="http://www.w3.org/2000/svg">
<path d="M128.421 32.6125L89.5701 15.3085C83.8684 12.7891 75.2495 12.7891 69.5478 15.3085L30.6966 32.6125C20.8844 36.9882 19.4258 42.9552 19.4258 46.1375C19.4258 49.3199 20.8844 55.2868 30.6966 59.6625L69.5478 76.9666C72.3987 78.2262 75.9788 78.8892 79.559 78.8892C83.1391 78.8892 86.7193 78.2262 89.5701 76.9666L128.421 59.6625C138.234 55.2868 139.692 49.3199 139.692 46.1375C139.692 42.9552 138.3 36.9882 128.421 32.6125Z" fill="#002797"/>
<path d="M79.5588 113.165C77.0394 113.165 74.5201 112.634 72.1996 111.64L27.5141 91.7502C20.6853 88.7004 15.3813 80.5456 15.3813 73.0538C15.3813 70.3356 17.5692 68.1477 20.2875 68.1477C23.0057 68.1477 25.1936 70.3356 25.1936 73.0538C25.1936 76.634 28.1771 81.2749 31.492 82.7335L76.1775 102.623C78.2991 103.551 80.7522 103.551 82.8737 102.623L127.559 82.7335C130.874 81.2749 133.858 76.7003 133.858 73.0538C133.858 70.3356 136.046 68.1477 138.764 68.1477C141.482 68.1477 143.67 70.3356 143.67 73.0538C143.67 80.4793 138.366 88.7004 131.537 91.7502L86.8517 111.64C84.5975 112.634 82.0782 113.165 79.5588 113.165Z" fill="#002797"/>
<path d="M79.5588 146.049C77.0394 146.049 74.5201 145.519 72.1996 144.524L27.5141 124.634C20.1549 121.386 15.3813 114.027 15.3813 105.938C15.3813 103.22 17.5692 101.032 20.2875 101.032C23.0057 101.032 25.1936 103.22 25.1936 105.938C25.1936 110.115 27.6467 113.894 31.492 115.618L76.1775 135.507C78.2991 136.436 80.7522 136.436 82.8737 135.507L127.559 115.618C131.338 113.96 133.858 110.115 133.858 105.938C133.858 103.22 136.046 101.032 138.764 101.032C141.482 101.032 143.67 103.22 143.67 105.938C143.67 114.027 138.896 121.319 131.537 124.634L86.8517 144.524C84.5975 145.519 82.0782 146.049 79.5588 146.049Z" fill="#002797"/>
</svg>
