<svg width="113" height="27" viewBox="0 0 113 27" fill="none" xmlns="http://www.w3.org/2000/svg">
<path d="M30.8602 22L26.19 5.6782H29.9596L32.6613 17.019H32.7968L35.7774 5.6782H39.0051L41.9778 17.0429H42.1213L44.823 5.6782H48.5926L43.9224 22H40.5592L37.4511 11.3287H37.3235L34.2234 22H30.8602ZM50.4396 22V5.6782H61.4377V8.52335H53.8904V12.4125H60.8718V15.2577H53.8904V19.1548H61.4695V22H50.4396ZM77.8332 5.6782V22H74.8525L67.7516 11.7271H67.632V22H64.1812V5.6782H67.2097L74.2548 15.9431H74.3983V5.6782H77.8332ZM86.4703 22H80.6843V5.6782H86.5181C88.1598 5.6782 89.5731 6.00495 90.7579 6.65846C91.9427 7.30666 92.8539 8.2391 93.4915 9.4558C94.1344 10.6725 94.4558 12.1283 94.4558 13.8232C94.4558 15.5233 94.1344 16.9844 93.4915 18.2065C92.8539 19.4285 91.9374 20.3662 90.742 21.0197C89.5519 21.6732 88.1279 22 86.4703 22ZM84.1352 19.0433H86.3268C87.3469 19.0433 88.205 18.8626 88.901 18.5013C89.6023 18.1347 90.1283 17.5689 90.479 16.8038C90.835 16.0334 91.013 15.0399 91.013 13.8232C91.013 12.6171 90.835 11.6315 90.479 10.8664C90.1283 10.1013 89.605 9.53815 88.909 9.17686C88.213 8.81557 87.3549 8.63493 86.3348 8.63493H84.1352V19.0433ZM107.094 5.6782H110.545V16.2778C110.545 17.4679 110.26 18.5093 109.692 19.4019C109.129 20.2945 108.34 20.9905 107.325 21.4899C106.31 21.9841 105.128 22.2311 103.778 22.2311C102.423 22.2311 101.239 21.9841 100.224 21.4899C99.2091 20.9905 98.4201 20.2945 97.8569 19.4019C97.2937 18.5093 97.0121 17.4679 97.0121 16.2778V5.6782H100.463V15.9829C100.463 16.6046 100.598 17.1571 100.869 17.6406C101.146 18.1241 101.534 18.504 102.033 18.7803C102.532 19.0565 103.114 19.1947 103.778 19.1947C104.448 19.1947 105.03 19.0565 105.524 18.7803C106.023 18.504 106.408 18.1241 106.679 17.6406C106.956 17.1571 107.094 16.6046 107.094 15.9829V5.6782Z" fill="#EBEDFF"/>
<path d="M15.749 7.67871L10.9843 5.55656C10.285 5.24759 9.22802 5.24759 8.52876 5.55656L3.76408 7.67871C2.56071 8.21535 2.38184 8.94713 2.38184 9.33741C2.38184 9.72769 2.56071 10.4595 3.76408 10.9961L8.52876 13.1183C8.87839 13.2727 9.31746 13.3541 9.75652 13.3541C10.1956 13.3541 10.6347 13.2727 10.9843 13.1183L15.749 10.9961C16.9523 10.4595 17.1312 9.72769 17.1312 9.33741C17.1312 8.94713 16.9605 8.21535 15.749 7.67871Z" fill="#EBEDFF"/>
<path d="M9.75739 17.5576C9.44842 17.5576 9.13945 17.4925 8.85487 17.3706L3.37467 14.9313C2.53719 14.5573 1.88672 13.5572 1.88672 12.6384C1.88672 12.3051 2.15504 12.0367 2.4884 12.0367C2.82177 12.0367 3.09009 12.3051 3.09009 12.6384C3.09009 13.0775 3.45597 13.6467 3.86252 13.8255L9.34272 16.2648C9.6029 16.3786 9.90375 16.3786 10.1639 16.2648L15.6441 13.8255C16.0507 13.6467 16.4166 13.0856 16.4166 12.6384C16.4166 12.3051 16.6849 12.0367 17.0182 12.0367C17.3516 12.0367 17.6199 12.3051 17.6199 12.6384C17.6199 13.5491 16.9695 14.5573 16.132 14.9313L10.6518 17.3706C10.3753 17.4925 10.0664 17.5576 9.75739 17.5576Z" fill="#EBEDFF"/>
<path d="M9.75739 21.5906C9.44842 21.5906 9.13945 21.5255 8.85487 21.4035L3.37467 18.9643C2.47214 18.5659 1.88672 17.6634 1.88672 16.6714C1.88672 16.338 2.15504 16.0697 2.4884 16.0697C2.82177 16.0697 3.09009 16.338 3.09009 16.6714C3.09009 17.1836 3.39093 17.6471 3.86252 17.8585L9.34272 20.2977C9.6029 20.4116 9.90375 20.4116 10.1639 20.2977L15.6441 17.8585C16.1076 17.6552 16.4166 17.1836 16.4166 16.6714C16.4166 16.338 16.6849 16.0697 17.0182 16.0697C17.3516 16.0697 17.6199 16.338 17.6199 16.6714C17.6199 17.6634 17.0345 18.5577 16.132 18.9643L10.6518 21.4035C10.3753 21.5255 10.0664 21.5906 9.75739 21.5906Z" fill="#EBEDFF"/>
</svg>
