<svg width="113" height="28" viewBox="0 0 113 28" fill="none" xmlns="http://www.w3.org/2000/svg">
<path d="M30.8602 22.4521L26.19 6.13034H29.9596L32.6613 17.4711H32.7968L35.7774 6.13034H39.0051L41.9778 17.495H42.1213L44.823 6.13034H48.5926L43.9224 22.4521H40.5592L37.4511 11.7808H37.3235L34.2234 22.4521H30.8602ZM50.4396 22.4521V6.13034H61.4377V8.9755H53.8904V12.8647H60.8718V15.7098H53.8904V19.607H61.4695V22.4521H50.4396ZM77.8332 6.13034V22.4521H74.8525L67.7516 12.1793H67.632V22.4521H64.1812V6.13034H67.2097L74.2548 16.3952H74.3983V6.13034H77.8332ZM86.4703 22.4521H80.6843V6.13034H86.5181C88.1598 6.13034 89.5731 6.4571 90.7579 7.11061C91.9427 7.75881 92.8539 8.69125 93.4915 9.90795C94.1344 11.1246 94.4558 12.5804 94.4558 14.2753C94.4558 15.9755 94.1344 17.4366 93.4915 18.6586C92.8539 19.8806 91.9374 20.8184 90.742 21.4719C89.5519 22.1254 88.1279 22.4521 86.4703 22.4521ZM84.1352 19.4954H86.3268C87.3469 19.4954 88.205 19.3148 88.901 18.9535C89.6023 18.5869 90.1283 18.021 90.479 17.2559C90.835 16.4856 91.013 15.492 91.013 14.2753C91.013 13.0692 90.835 12.0837 90.479 11.3186C90.1283 10.5535 89.605 9.9903 88.909 9.62901C88.213 9.26772 87.3549 9.08708 86.3348 9.08708H84.1352V19.4954ZM107.094 6.13034H110.545V16.73C110.545 17.9201 110.26 18.9615 109.692 19.854C109.129 20.7466 108.34 21.4427 107.325 21.9421C106.31 22.4362 105.128 22.6833 103.778 22.6833C102.423 22.6833 101.239 22.4362 100.224 21.9421C99.2091 21.4427 98.4201 20.7466 97.8569 19.854C97.2937 18.9615 97.0121 17.9201 97.0121 16.73V6.13034H100.463V16.4351C100.463 17.0567 100.598 17.6093 100.869 18.0928C101.146 18.5763 101.534 18.9561 102.033 19.2324C102.532 19.5087 103.114 19.6468 103.778 19.6468C104.448 19.6468 105.03 19.5087 105.524 19.2324C106.023 18.9561 106.408 18.5763 106.679 18.0928C106.956 17.6093 107.094 17.0567 107.094 16.4351V6.13034Z" fill="#002797"/>
<path d="M15.749 8.13074L10.9843 6.00858C10.285 5.69961 9.22802 5.69961 8.52876 6.00858L3.76408 8.13074C2.56071 8.66738 2.38184 9.39915 2.38184 9.78943C2.38184 10.1797 2.56071 10.9115 3.76408 11.4481L8.52876 13.5703C8.87839 13.7248 9.31746 13.8061 9.75652 13.8061C10.1956 13.8061 10.6347 13.7248 10.9843 13.5703L15.749 11.4481C16.9523 10.9115 17.1312 10.1797 17.1312 9.78943C17.1312 9.39915 16.9605 8.66738 15.749 8.13074Z" fill="#002797"/>
<path d="M9.75739 18.0099C9.44842 18.0099 9.13945 17.9448 8.85487 17.8229L3.37467 15.3836C2.53719 15.0096 1.88672 14.0095 1.88672 13.0907C1.88672 12.7573 2.15504 12.489 2.4884 12.489C2.82177 12.489 3.09009 12.7573 3.09009 13.0907C3.09009 13.5298 3.45597 14.0989 3.86252 14.2778L9.34272 16.7171C9.6029 16.8309 9.90375 16.8309 10.1639 16.7171L15.6441 14.2778C16.0507 14.0989 16.4166 13.5379 16.4166 13.0907C16.4166 12.7573 16.6849 12.489 17.0182 12.489C17.3516 12.489 17.6199 12.7573 17.6199 13.0907C17.6199 14.0014 16.9695 15.0096 16.132 15.3836L10.6518 17.8229C10.3753 17.9448 10.0664 18.0099 9.75739 18.0099Z" fill="#002797"/>
<path d="M9.75739 22.0426C9.44842 22.0426 9.13945 21.9775 8.85487 21.8556L3.37467 19.4163C2.47214 19.0179 1.88672 18.1154 1.88672 17.1234C1.88672 16.79 2.15504 16.5217 2.4884 16.5217C2.82177 16.5217 3.09009 16.79 3.09009 17.1234C3.09009 17.6357 3.39093 18.0991 3.86252 18.3105L9.34272 20.7498C9.6029 20.8636 9.90375 20.8636 10.1639 20.7498L15.6441 18.3105C16.1076 18.1072 16.4166 17.6357 16.4166 17.1234C16.4166 16.79 16.6849 16.5217 17.0182 16.5217C17.3516 16.5217 17.6199 16.79 17.6199 17.1234C17.6199 18.1154 17.0345 19.0098 16.132 19.4163L10.6518 21.8556C10.3753 21.9775 10.0664 22.0426 9.75739 22.0426Z" fill="#002797"/>
</svg>
